<svg xmlns="http://www.w3.org/2000/svg" viewBox="0 0 512 512" fill="none">
  <rect width="512" height="512" rx="96" fill="#0f172a"/>
  <!-- Subtle background stars -->
  <circle cx="80" cy="90" r="1" fill="#fafafa" opacity="0.3"/>
  <circle cx="420" cy="60" r="1.2" fill="#fafafa" opacity="0.2"/>
  <circle cx="440" cy="380" r="1" fill="#fafafa" opacity="0.25"/>
  <circle cx="60" cy="420" r="1" fill="#fafafa" opacity="0.2"/>
  <circle cx="150" cy="440" r="0.8" fill="#fafafa" opacity="0.15"/>
  <circle cx="380" cy="140" r="1" fill="#fafafa" opacity="0.2"/>
  <circle cx="130" cy="200" r="0.8" fill="#fafafa" opacity="0.15"/>
  <circle cx="400" cy="300" r="1" fill="#fafafa" opacity="0.2"/>
  <!-- Lyra constellation: lines -->
  <g stroke="#94a3b8" stroke-width="2.5" opacity="0.35">
    <line x1="256" y1="100" x2="192" y2="180"/>
    <line x1="256" y1="100" x2="320" y2="180"/>
    <line x1="192" y1="180" x2="182" y2="296"/>
    <line x1="320" y1="180" x2="330" y2="296"/>
    <line x1="182" y1="296" x2="214" y2="392"/>
    <line x1="330" y1="296" x2="298" y2="392"/>
    <line x1="214" y1="392" x2="298" y2="392"/>
  </g>
  <!-- Stars (dots) -->
  <circle cx="256" cy="100" r="14" fill="#60a5fa"/>
  <circle cx="256" cy="100" r="20" fill="#60a5fa" opacity="0.15"/>
  <circle cx="192" cy="180" r="10" fill="#e2e8f0"/>
  <circle cx="320" cy="180" r="10" fill="#e2e8f0"/>
  <circle cx="182" cy="296" r="8" fill="#e2e8f0" opacity="0.8"/>
  <circle cx="330" cy="296" r="8" fill="#e2e8f0" opacity="0.8"/>
  <circle cx="214" cy="392" r="7" fill="#e2e8f0" opacity="0.6"/>
  <circle cx="298" cy="392" r="7" fill="#e2e8f0" opacity="0.6"/>
</svg>
